<?xml version="1.0" standalone="no"?>
<!DOCTYPE svg PUBLIC "-//W3C//DTD SVG 20010904//EN"
 "http://www.w3.org/TR/2001/REC-SVG-20010904/DTD/svg10.dtd">
<svg version="1.0" xmlns="http://www.w3.org/2000/svg"
 width="700.000000pt" height="700.000000pt" viewBox="0 0 700.000000 700.000000"
 preserveAspectRatio="xMidYMid meet">
<metadata>
Created by potrace 1.14, written by Peter Selinger 2001-2017
</metadata>
<g transform="translate(0.000000,700.000000) scale(0.100000,-0.100000)"
fill="#000000" stroke="none">
<path d="M854 6491 c-2 -2 -4 -593 -4 -1313 l0 -1308 997 2 996 3 0 211 c0
117 -3 216 -6 220 -3 5 -332 9 -731 8 l-726 -1 -1 46 c0 59 0 585 0 632 l1 36
651 -1 c570 -1 652 1 658 14 4 8 6 107 6 220 l-1 205 -657 3 -657 2 -1 23 c0
26 0 489 0 530 l1 27 705 0 705 0 1 33 c2 139 0 400 -5 404 -6 6 -1926 10
-1932 4z"/>
<path d="M4123 6476 c31 -49 32 -50 133 -206 207 -320 290 -449 299 -463 21
-34 282 -435 323 -496 23 -36 40 -71 38 -78 -5 -13 -48 -79 -341 -525 -153
-233 -402 -614 -479 -733 l-65 -100 311 -3 c241 -2 315 1 324 10 7 7 63 93
126 190 62 98 189 297 283 442 l170 264 49 -76 c27 -43 72 -113 101 -157 28
-44 100 -156 160 -250 59 -93 141 -221 182 -284 41 -62 77 -120 80 -127 4 -12
62 -14 324 -14 175 0 319 2 319 5 0 2 -200 306 -446 674 l-445 671 152 237
c83 131 176 276 206 323 229 356 397 618 407 635 6 11 16 27 23 35 32 42 32
42 -281 42 -237 0 -301 -3 -311 -14 -14 -15 -285 -456 -285 -464 0 -3 -6 -12
-12 -19 -7 -7 -58 -88 -113 -179 -54 -91 -100 -164 -101 -163 -1 1 -66 106
-144 232 -79 127 -157 253 -175 280 -71 112 -139 220 -150 239 -42 75 -51 86
-75 87 -14 0 -154 1 -312 2 -277 2 -286 1 -275 -17z"/>
<path d="M1584 3175 c-2 -5 -3 -595 -2 -1310 l3 -1300 263 -1 262 0 -2 1310
-3 1311 -259 0 c-167 0 -260 -3 -262 -10z"/>
<path d="M4214 3181 c-2 -2 -4 -103 -4 -223 l0 -218 388 -2 387 -3 1 -1075 c1
-591 2 -1080 3 -1085 1 -7 89 -11 264 -10 l262 0 0 1085 0 1085 387 3 387 2 3
220 c2 141 -1 220 -7 221 -29 4 -2067 3 -2071 0z"/>
</g>
</svg>
